 http://www.imdb.com/title/tt2334841/

Source : CHD


Format                                   : AVI
Format/Info                              : Audio Video Interleave
File size                                : 705 MiB
Duration                                 : 1h 30mn
Overall bit rate                         : 1 093 Kbps
Writing library                          : VirtualDub build 32842/release

Video
ID                                       : 0
Format                                   : MPEG-4 Visual
Format profile                           : Advanced Simple@L5
Format settings, BVOP                    : 4
Format settings, QPel                    : No
Format settings, GMC                     : No warppoints
Format settings, Matrix                  : Default (H.263)
Muxing mode                              : Packed bitstream
Codec ID                                 : XVID
Codec ID/Hint                            : XviD
Duration                                 : 1h 30mn
Bit rate                                 : 955 Kbps
Width                                    : 640 pixels
Height                                   : 352 pixels
Display aspect ratio                     : 16:9
Frame rate                               : 23.976 fps
Color space                              : YUV
Chroma subsampling                       : 4:2:0
Bit depth                                : 8 bits
Scan type                                : Progressive
Compression mode                         : Lossy
Bits/(Pixel*Frame)                       : 0.177
Stream size                              : 616 MiB (87%)
Writing library                          : XviD 64

Audio
ID                                       : 1
Format                                   : MPEG Audio
Format version                           : Version 1
Format profile                           : Layer 3
Codec ID                                 : 55
Codec ID/Hint                            : MP3
Duration                                 : 1h 30mn
Bit rate mode                            : Constant
Bit rate                                 : 128 Kbps
Channel(s)                               : 2 channels
Sampling rate                            : 44.1 KHz
Compression mode                         : Lossy
Stream size                              : 82.5 MiB (12%)
Alignment                                : Split accross interleaves
Interleave, duration                     : 42 ms (1.00 video frame)
Interleave, preload duration             : 500 ms
Writing library                          : LAME3.99r
Encoding settings                        : -m s -V 4 -q 3 -lowpass 17 -b 128


Plot
A Marine must do whatever it takes to save his kidnapped niece and stop a terrorist attack masterminded by

 
http://www.shotpix.com/images/56315750405871967594.png 
http://www.shotpix.com/images/99963818309669113291.png 
http://www.shotpix.com/images/99776478759700001256.png 
http://www.shotpix.com/images/90498920510701237726.png
